<?xml version="1.0" encoding="UTF-8" standalone="no"?>
<!-- Created with Inkscape (http://www.inkscape.org/) -->

<svg
   xmlns:dc="http://purl.org/dc/elements/1.1/"
   xmlns:cc="http://creativecommons.org/ns#"
   xmlns:rdf="http://www.w3.org/1999/02/22-rdf-syntax-ns#"
   xmlns:svg="http://www.w3.org/2000/svg"
   xmlns="http://www.w3.org/2000/svg"
   xmlns:sodipodi="http://sodipodi.sourceforge.net/DTD/sodipodi-0.dtd"
   xmlns:inkscape="http://www.inkscape.org/namespaces/inkscape"
   width="1000"
   height="1000"
   viewBox="0 0 1000 1000"
   id="svg4168"
   version="1.1"
   inkscape:version="0.91 r13725"
   sodipodi:docname="gradebook_v2.svg">
  <defs
     id="defs4170" />
  <sodipodi:namedview
     id="base"
     pagecolor="#ffffff"
     bordercolor="#666666"
     borderopacity="1.0"
     inkscape:pageopacity="0.0"
     inkscape:pageshadow="2"
     inkscape:zoom="0.35"
     inkscape:cx="416.39479"
     inkscape:cy="411.27056"
     inkscape:document-units="px"
     inkscape:current-layer="layer1"
     showgrid="false"
     units="px"
     showborder="false"
     inkscape:window-width="1366"
     inkscape:window-height="720"
     inkscape:window-x="0"
     inkscape:window-y="0"
     inkscape:window-maximized="1" />
  <metadata
     id="metadata4173">
    <rdf:RDF>
      <cc:Work
         rdf:about="">
        <dc:format>image/svg+xml</dc:format>
        <dc:type
           rdf:resource="http://purl.org/dc/dcmitype/StillImage" />
        <dc:title />
      </cc:Work>
    </rdf:RDF>
  </metadata>
  <g
     inkscape:label="Layer 1"
     inkscape:groupmode="layer"
     id="layer1"
     transform="translate(0,-52.362161)">
    <path
       style="fill:#000000;fill-rule:evenodd;stroke:#000000;stroke-width:20;stroke-linecap:round;stroke-linejoin:round;stroke-miterlimit:4;stroke-dasharray:none;stroke-opacity:1;fill-opacity:0"
       d="m 100,102.36216 50,-50.000019 750,-2e-5 0,950.000079 -50,0"
       id="path4728"
       inkscape:connector-curvature="0"
       sodipodi:nodetypes="ccccc" />
    <path
       style="fill:#ffffff;fill-rule:evenodd;stroke:#000000;stroke-width:20;stroke-linecap:round;stroke-linejoin:round;stroke-miterlimit:4;stroke-dasharray:none;stroke-opacity:1;fill-opacity:1"
       d="m 100,1052.3622 0,-950.00004 750,0 0,950.00004 z"
       id="path4722"
       inkscape:connector-curvature="0"
       sodipodi:nodetypes="ccccc" />
    <text
       xml:space="preserve"
       style="font-style:normal;font-variant:normal;font-weight:bold;font-stretch:normal;font-size:500px;line-height:125%;font-family:sans-serif;-inkscape-font-specification:'sans-serif Bold';letter-spacing:0px;word-spacing:0px;fill:#000000;fill-opacity:1;stroke:none;stroke-width:1px;stroke-linecap:butt;stroke-linejoin:miter;stroke-opacity:1"
       x="197.55859"
       y="752.36218"
       id="text4746"
       sodipodi:linespacing="125%"><tspan
         sodipodi:role="line"
         id="tspan4748"
         x="197.55859"
         y="752.36218">A<tspan
   style="font-style:normal;font-variant:normal;font-weight:bold;font-stretch:normal;font-size:250px;font-family:sans-serif;-inkscape-font-specification:'sans-serif Bold'"
   id="tspan4795" /></tspan></text>
    <path
       style="fill:none;fill-rule:evenodd;stroke:#000000;stroke-width:50;stroke-linecap:butt;stroke-linejoin:miter;stroke-miterlimit:4;stroke-dasharray:none;stroke-opacity:1"
       d="m 694.28572,452.36216 0,250"
       id="path4801"
       inkscape:connector-curvature="0"
       sodipodi:nodetypes="cc" />
    <path
       sodipodi:nodetypes="cc"
       inkscape:connector-curvature="0"
       id="path4803"
       d="m 569.28572,577.36216 250,0"
       style="fill:none;fill-rule:evenodd;stroke:#000000;stroke-width:50;stroke-linecap:butt;stroke-linejoin:miter;stroke-miterlimit:4;stroke-dasharray:none;stroke-opacity:1" />
    <g
       id="g5451"
       transform="matrix(1.0022893,0,0,1.0022893,-31.925277,767.87109)">
      <path
         sodipodi:open="true"
         d="M 213.38898,188.71742 A 79.792999,25.125441 0 0 1 164.13144,211.9303 79.792999,25.125441 0 0 1 77.173806,206.48379 79.792999,25.125441 0 0 1 59.876859,179.10233 79.792999,25.125441 0 0 1 133.59598,163.59198"
         sodipodi:end="4.712389"
         sodipodi:start="0"
         sodipodi:ry="25.125441"
         sodipodi:rx="79.792999"
         sodipodi:cy="188.71742"
         sodipodi:cx="133.59598"
         sodipodi:type="arc"
         id="path4747"
         style="fill:none;fill-opacity:1;fill-rule:evenodd;stroke:#000000;stroke-width:40;stroke-linecap:butt;stroke-linejoin:round;stroke-miterlimit:4;stroke-dasharray:none;stroke-opacity:1" />
      <path
         style="fill:none;fill-opacity:1;fill-rule:evenodd;stroke:#000000;stroke-width:40;stroke-linecap:round;stroke-linejoin:round;stroke-miterlimit:4;stroke-dasharray:none;stroke-opacity:1"
         id="path5449"
         sodipodi:type="arc"
         sodipodi:cx="133.59598"
         sodipodi:cy="188.71742"
         sodipodi:rx="79.792999"
         sodipodi:ry="25.125441"
         sodipodi:start="0"
         sodipodi:end="3.4906585"
         d="m 213.38898,188.71742 a 79.792999,25.125441 0 0 1 -48.18861,23.07059 79.792999,25.125441 0 0 1 -86.361671,-4.795 79.792999,25.125441 0 0 1 -20.223614,-26.86899"
         sodipodi:open="true" />
    </g>
    <g
       transform="matrix(1.0022893,0,0,1.0022893,-31.925277,617.87109)"
       id="g5461">
      <path
         style="fill:none;fill-opacity:1;fill-rule:evenodd;stroke:#000000;stroke-width:40;stroke-linecap:butt;stroke-linejoin:round;stroke-miterlimit:4;stroke-dasharray:none;stroke-opacity:1"
         id="path5463"
         sodipodi:type="arc"
         sodipodi:cx="133.59598"
         sodipodi:cy="188.71742"
         sodipodi:rx="79.792999"
         sodipodi:ry="25.125441"
         sodipodi:start="0"
         sodipodi:end="4.712389"
         d="M 213.38898,188.71742 A 79.792999,25.125441 0 0 1 164.13144,211.9303 79.792999,25.125441 0 0 1 77.173806,206.48379 79.792999,25.125441 0 0 1 59.876859,179.10233 79.792999,25.125441 0 0 1 133.59598,163.59198"
         sodipodi:open="true" />
      <path
         sodipodi:open="true"
         d="m 213.38898,188.71742 a 79.792999,25.125441 0 0 1 -48.18861,23.07059 79.792999,25.125441 0 0 1 -86.361671,-4.795 79.792999,25.125441 0 0 1 -20.223614,-26.86899"
         sodipodi:end="3.4906585"
         sodipodi:start="0"
         sodipodi:ry="25.125441"
         sodipodi:rx="79.792999"
         sodipodi:cy="188.71742"
         sodipodi:cx="133.59598"
         sodipodi:type="arc"
         id="path5465"
         style="fill:none;fill-opacity:1;fill-rule:evenodd;stroke:#000000;stroke-width:40;stroke-linecap:round;stroke-linejoin:round;stroke-miterlimit:4;stroke-dasharray:none;stroke-opacity:1" />
    </g>
    <g
       id="g5467"
       transform="matrix(1.0022893,0,0,1.0022893,-31.925277,467.87109)">
      <path
         sodipodi:open="true"
         d="M 213.38898,188.71742 A 79.792999,25.125441 0 0 1 164.13144,211.9303 79.792999,25.125441 0 0 1 77.173806,206.48379 79.792999,25.125441 0 0 1 59.876859,179.10233 79.792999,25.125441 0 0 1 133.59598,163.59198"
         sodipodi:end="4.712389"
         sodipodi:start="0"
         sodipodi:ry="25.125441"
         sodipodi:rx="79.792999"
         sodipodi:cy="188.71742"
         sodipodi:cx="133.59598"
         sodipodi:type="arc"
         id="path5469"
         style="fill:none;fill-opacity:1;fill-rule:evenodd;stroke:#000000;stroke-width:40;stroke-linecap:butt;stroke-linejoin:round;stroke-miterlimit:4;stroke-dasharray:none;stroke-opacity:1" />
      <path
         style="fill:none;fill-opacity:1;fill-rule:evenodd;stroke:#000000;stroke-width:40;stroke-linecap:round;stroke-linejoin:round;stroke-miterlimit:4;stroke-dasharray:none;stroke-opacity:1"
         id="path5471"
         sodipodi:type="arc"
         sodipodi:cx="133.59598"
         sodipodi:cy="188.71742"
         sodipodi:rx="79.792999"
         sodipodi:ry="25.125441"
         sodipodi:start="0"
         sodipodi:end="3.4906585"
         d="m 213.38898,188.71742 a 79.792999,25.125441 0 0 1 -48.18861,23.07059 79.792999,25.125441 0 0 1 -86.361671,-4.795 79.792999,25.125441 0 0 1 -20.223614,-26.86899"
         sodipodi:open="true" />
    </g>
    <g
       transform="matrix(1.0022893,0,0,1.0022893,-31.925277,317.87109)"
       id="g5473">
      <path
         style="fill:none;fill-opacity:1;fill-rule:evenodd;stroke:#000000;stroke-width:40;stroke-linecap:butt;stroke-linejoin:round;stroke-miterlimit:4;stroke-dasharray:none;stroke-opacity:1"
         id="path5475"
         sodipodi:type="arc"
         sodipodi:cx="133.59598"
         sodipodi:cy="188.71742"
         sodipodi:rx="79.792999"
         sodipodi:ry="25.125441"
         sodipodi:start="0"
         sodipodi:end="4.712389"
         d="M 213.38898,188.71742 A 79.792999,25.125441 0 0 1 164.13144,211.9303 79.792999,25.125441 0 0 1 77.173806,206.48379 79.792999,25.125441 0 0 1 59.876859,179.10233 79.792999,25.125441 0 0 1 133.59598,163.59198"
         sodipodi:open="true" />
      <path
         sodipodi:open="true"
         d="m 213.38898,188.71742 a 79.792999,25.125441 0 0 1 -48.18861,23.07059 79.792999,25.125441 0 0 1 -86.361671,-4.795 79.792999,25.125441 0 0 1 -20.223614,-26.86899"
         sodipodi:end="3.4906585"
         sodipodi:start="0"
         sodipodi:ry="25.125441"
         sodipodi:rx="79.792999"
         sodipodi:cy="188.71742"
         sodipodi:cx="133.59598"
         sodipodi:type="arc"
         id="path5477"
         style="fill:none;fill-opacity:1;fill-rule:evenodd;stroke:#000000;stroke-width:40;stroke-linecap:round;stroke-linejoin:round;stroke-miterlimit:4;stroke-dasharray:none;stroke-opacity:1" />
    </g>
    <g
       id="g5479"
       transform="matrix(1.0022893,0,0,1.0022893,-31.925277,167.87109)">
      <path
         sodipodi:open="true"
         d="M 213.38898,188.71742 A 79.792999,25.125441 0 0 1 164.13144,211.9303 79.792999,25.125441 0 0 1 77.173806,206.48379 79.792999,25.125441 0 0 1 59.876859,179.10233 79.792999,25.125441 0 0 1 133.59598,163.59198"
         sodipodi:end="4.712389"
         sodipodi:start="0"
         sodipodi:ry="25.125441"
         sodipodi:rx="79.792999"
         sodipodi:cy="188.71742"
         sodipodi:cx="133.59598"
         sodipodi:type="arc"
         id="path5481"
         style="fill:none;fill-opacity:1;fill-rule:evenodd;stroke:#000000;stroke-width:40;stroke-linecap:butt;stroke-linejoin:round;stroke-miterlimit:4;stroke-dasharray:none;stroke-opacity:1" />
      <path
         style="fill:none;fill-opacity:1;fill-rule:evenodd;stroke:#000000;stroke-width:40;stroke-linecap:round;stroke-linejoin:round;stroke-miterlimit:4;stroke-dasharray:none;stroke-opacity:1"
         id="path5483"
         sodipodi:type="arc"
         sodipodi:cx="133.59598"
         sodipodi:cy="188.71742"
         sodipodi:rx="79.792999"
         sodipodi:ry="25.125441"
         sodipodi:start="0"
         sodipodi:end="3.4906585"
         d="m 213.38898,188.71742 a 79.792999,25.125441 0 0 1 -48.18861,23.07059 79.792999,25.125441 0 0 1 -86.361671,-4.795 79.792999,25.125441 0 0 1 -20.223614,-26.86899"
         sodipodi:open="true" />
    </g>
    <g
       transform="matrix(1.0022893,0,0,1.0022893,-31.925277,17.871098)"
       id="g5485">
      <path
         style="fill:none;fill-opacity:1;fill-rule:evenodd;stroke:#000000;stroke-width:40;stroke-linecap:butt;stroke-linejoin:round;stroke-miterlimit:4;stroke-dasharray:none;stroke-opacity:1"
         id="path5487"
         sodipodi:type="arc"
         sodipodi:cx="133.59598"
         sodipodi:cy="188.71742"
         sodipodi:rx="79.792999"
         sodipodi:ry="25.125441"
         sodipodi:start="0"
         sodipodi:end="4.712389"
         d="M 213.38898,188.71742 A 79.792999,25.125441 0 0 1 164.13144,211.9303 79.792999,25.125441 0 0 1 77.173806,206.48379 79.792999,25.125441 0 0 1 59.876859,179.10233 79.792999,25.125441 0 0 1 133.59598,163.59198"
         sodipodi:open="true" />
      <path
         sodipodi:open="true"
         d="m 213.38898,188.71742 a 79.792999,25.125441 0 0 1 -48.18861,23.07059 79.792999,25.125441 0 0 1 -86.361671,-4.795 79.792999,25.125441 0 0 1 -20.223614,-26.86899"
         sodipodi:end="3.4906585"
         sodipodi:start="0"
         sodipodi:ry="25.125441"
         sodipodi:rx="79.792999"
         sodipodi:cy="188.71742"
         sodipodi:cx="133.59598"
         sodipodi:type="arc"
         id="path5489"
         style="fill:none;fill-opacity:1;fill-rule:evenodd;stroke:#000000;stroke-width:40;stroke-linecap:round;stroke-linejoin:round;stroke-miterlimit:4;stroke-dasharray:none;stroke-opacity:1" />
    </g>
  </g>
</svg>
